<mxfile host="app.diagrams.net" agent="Mozilla/5.0 (Windows NT 10.0; Win64; x64) AppleWebKit/537.36 (KHTML, like Gecko) Chrome/131.0.0.0 Safari/537.36" version="25.0.3">
  <diagram name="Page-1" id="x2t5C4RU685nWMusXcoe">
    <mxGraphModel dx="2074" dy="1920" grid="1" gridSize="10" guides="1" tooltips="1" connect="1" arrows="1" fold="1" page="1" pageScale="1" pageWidth="850" pageHeight="1100" math="0" shadow="0">
      <root>
        <mxCell id="0" />
        <mxCell id="1" parent="0" />
        <mxCell id="wzfwyT9dnHNH-9bryAYG-8" value="Plant" style="swimlane;fontStyle=1;align=center;verticalAlign=top;childLayout=stackLayout;horizontal=1;startSize=28.4;horizontalStack=0;resizeParent=1;resizeParentMax=0;resizeLast=0;collapsible=0;marginBottom=0;" parent="1" vertex="1">
          <mxGeometry x="690" y="500" width="180" height="232.4" as="geometry" />
        </mxCell>
        <mxCell id="wzfwyT9dnHNH-9bryAYG-23" value="id" style="text;strokeColor=none;fillColor=none;align=left;verticalAlign=top;spacingLeft=4;spacingRight=4;overflow=hidden;rotatable=0;points=[[0,0.5],[1,0.5]];portConstraint=eastwest;" parent="wzfwyT9dnHNH-9bryAYG-8" vertex="1">
          <mxGeometry y="28.4" width="180" height="28" as="geometry" />
        </mxCell>
        <mxCell id="wzfwyT9dnHNH-9bryAYG-9" value="placeId" style="text;strokeColor=none;fillColor=none;align=left;verticalAlign=top;spacingLeft=4;spacingRight=4;overflow=hidden;rotatable=0;points=[[0,0.5],[1,0.5]];portConstraint=eastwest;" parent="wzfwyT9dnHNH-9bryAYG-8" vertex="1">
          <mxGeometry y="56.4" width="180" height="28" as="geometry" />
        </mxCell>
        <mxCell id="wzfwyT9dnHNH-9bryAYG-11" style="line;strokeWidth=1;fillColor=none;align=left;verticalAlign=middle;spacingTop=-1;spacingLeft=3;spacingRight=3;rotatable=0;labelPosition=right;points=[];portConstraint=eastwest;strokeColor=inherit;" parent="wzfwyT9dnHNH-9bryAYG-8" vertex="1">
          <mxGeometry y="84.4" width="180" height="8" as="geometry" />
        </mxCell>
        <mxCell id="wzfwyT9dnHNH-9bryAYG-12" value="DOM" style="text;strokeColor=none;fillColor=none;align=left;verticalAlign=top;spacingLeft=4;spacingRight=4;overflow=hidden;rotatable=0;points=[[0,0.5],[1,0.5]];portConstraint=eastwest;" parent="wzfwyT9dnHNH-9bryAYG-8" vertex="1">
          <mxGeometry y="92.4" width="180" height="28" as="geometry" />
        </mxCell>
        <mxCell id="wzfwyT9dnHNH-9bryAYG-62" value="creationDate" style="text;strokeColor=none;fillColor=none;align=left;verticalAlign=top;spacingLeft=4;spacingRight=4;overflow=hidden;rotatable=0;points=[[0,0.5],[1,0.5]];portConstraint=eastwest;" parent="wzfwyT9dnHNH-9bryAYG-8" vertex="1">
          <mxGeometry y="120.4" width="180" height="28" as="geometry" />
        </mxCell>
        <mxCell id="wzfwyT9dnHNH-9bryAYG-13" value="publicationDate" style="text;strokeColor=none;fillColor=none;align=left;verticalAlign=top;spacingLeft=4;spacingRight=4;overflow=hidden;rotatable=0;points=[[0,0.5],[1,0.5]];portConstraint=eastwest;" parent="wzfwyT9dnHNH-9bryAYG-8" vertex="1">
          <mxGeometry y="148.4" width="180" height="28" as="geometry" />
        </mxCell>
        <mxCell id="wzfwyT9dnHNH-9bryAYG-66" value="reservableElementNumber" style="text;strokeColor=none;fillColor=none;align=left;verticalAlign=top;spacingLeft=4;spacingRight=4;overflow=hidden;rotatable=0;points=[[0,0.5],[1,0.5]];portConstraint=eastwest;" parent="wzfwyT9dnHNH-9bryAYG-8" vertex="1">
          <mxGeometry y="176.4" width="180" height="28" as="geometry" />
        </mxCell>
        <mxCell id="wzfwyT9dnHNH-9bryAYG-67" value="reserved:bool" style="text;strokeColor=none;fillColor=none;align=left;verticalAlign=top;spacingLeft=4;spacingRight=4;overflow=hidden;rotatable=0;points=[[0,0.5],[1,0.5]];portConstraint=eastwest;" parent="wzfwyT9dnHNH-9bryAYG-8" vertex="1">
          <mxGeometry y="204.4" width="180" height="28" as="geometry" />
        </mxCell>
        <mxCell id="wzfwyT9dnHNH-9bryAYG-15" value="Place" style="swimlane;fontStyle=1;align=center;verticalAlign=top;childLayout=stackLayout;horizontal=1;startSize=28.4;horizontalStack=0;resizeParent=1;resizeParentMax=0;resizeLast=0;collapsible=0;marginBottom=0;" parent="1" vertex="1">
          <mxGeometry x="340" y="505.8" width="180" height="176.4" as="geometry" />
        </mxCell>
        <mxCell id="wzfwyT9dnHNH-9bryAYG-16" value="+id" style="text;strokeColor=none;fillColor=none;align=left;verticalAlign=top;spacingLeft=4;spacingRight=4;overflow=hidden;rotatable=0;points=[[0,0.5],[1,0.5]];portConstraint=eastwest;" parent="wzfwyT9dnHNH-9bryAYG-15" vertex="1">
          <mxGeometry y="28.4" width="180" height="28" as="geometry" />
        </mxCell>
        <mxCell id="wzfwyT9dnHNH-9bryAYG-64" value="parentID" style="text;strokeColor=none;fillColor=none;align=left;verticalAlign=top;spacingLeft=4;spacingRight=4;overflow=hidden;rotatable=0;points=[[0,0.5],[1,0.5]];portConstraint=eastwest;" parent="wzfwyT9dnHNH-9bryAYG-15" vertex="1">
          <mxGeometry y="56.4" width="180" height="28" as="geometry" />
        </mxCell>
        <mxCell id="wzfwyT9dnHNH-9bryAYG-18" style="line;strokeWidth=1;fillColor=none;align=left;verticalAlign=middle;spacingTop=-1;spacingLeft=3;spacingRight=3;rotatable=0;labelPosition=right;points=[];portConstraint=eastwest;strokeColor=inherit;" parent="wzfwyT9dnHNH-9bryAYG-15" vertex="1">
          <mxGeometry y="84.4" width="180" height="8" as="geometry" />
        </mxCell>
        <mxCell id="wzfwyT9dnHNH-9bryAYG-19" value="Name" style="text;strokeColor=none;fillColor=none;align=left;verticalAlign=top;spacingLeft=4;spacingRight=4;overflow=hidden;rotatable=0;points=[[0,0.5],[1,0.5]];portConstraint=eastwest;" parent="wzfwyT9dnHNH-9bryAYG-15" vertex="1">
          <mxGeometry y="92.4" width="180" height="28" as="geometry" />
        </mxCell>
        <mxCell id="wzfwyT9dnHNH-9bryAYG-20" value="Description" style="text;strokeColor=none;fillColor=none;align=left;verticalAlign=top;spacingLeft=4;spacingRight=4;overflow=hidden;rotatable=0;points=[[0,0.5],[1,0.5]];portConstraint=eastwest;" parent="wzfwyT9dnHNH-9bryAYG-15" vertex="1">
          <mxGeometry y="120.4" width="180" height="28" as="geometry" />
        </mxCell>
        <mxCell id="wzfwyT9dnHNH-9bryAYG-21" value="Location" style="text;strokeColor=none;fillColor=none;align=left;verticalAlign=top;spacingLeft=4;spacingRight=4;overflow=hidden;rotatable=0;points=[[0,0.5],[1,0.5]];portConstraint=eastwest;" parent="wzfwyT9dnHNH-9bryAYG-15" vertex="1">
          <mxGeometry y="148.4" width="180" height="28" as="geometry" />
        </mxCell>
        <mxCell id="wzfwyT9dnHNH-9bryAYG-63" style="edgeStyle=orthogonalEdgeStyle;rounded=0;orthogonalLoop=1;jettySize=auto;html=1;exitX=0.5;exitY=0;exitDx=0;exitDy=0;entryX=0;entryY=0.5;entryDx=0;entryDy=0;endArrow=none;endFill=0;" parent="wzfwyT9dnHNH-9bryAYG-15" source="wzfwyT9dnHNH-9bryAYG-15" target="wzfwyT9dnHNH-9bryAYG-16" edge="1">
          <mxGeometry relative="1" as="geometry" />
        </mxCell>
        <mxCell id="wzfwyT9dnHNH-9bryAYG-65" value="0..*" style="edgeLabel;html=1;align=center;verticalAlign=middle;resizable=0;points=[];" parent="wzfwyT9dnHNH-9bryAYG-63" vertex="1" connectable="0">
          <mxGeometry x="0.8539" y="-1" relative="1" as="geometry">
            <mxPoint as="offset" />
          </mxGeometry>
        </mxCell>
        <mxCell id="wzfwyT9dnHNH-9bryAYG-24" value="" style="endArrow=none;html=1;rounded=0;entryX=0;entryY=0.5;entryDx=0;entryDy=0;exitX=1;exitY=0.5;exitDx=0;exitDy=0;" parent="1" source="wzfwyT9dnHNH-9bryAYG-19" target="wzfwyT9dnHNH-9bryAYG-8" edge="1">
          <mxGeometry width="50" height="50" relative="1" as="geometry">
            <mxPoint x="530" y="592.2" as="sourcePoint" />
            <mxPoint x="590" y="515.8" as="targetPoint" />
          </mxGeometry>
        </mxCell>
        <mxCell id="wzfwyT9dnHNH-9bryAYG-28" value="0..*" style="edgeLabel;html=1;align=center;verticalAlign=middle;resizable=0;points=[];" parent="wzfwyT9dnHNH-9bryAYG-24" vertex="1" connectable="0">
          <mxGeometry x="0.9198" relative="1" as="geometry">
            <mxPoint as="offset" />
          </mxGeometry>
        </mxCell>
        <mxCell id="wzfwyT9dnHNH-9bryAYG-29" value="credential" style="swimlane;fontStyle=1;align=center;verticalAlign=top;childLayout=stackLayout;horizontal=1;startSize=28.4;horizontalStack=0;resizeParent=1;resizeParentMax=0;resizeLast=0;collapsible=0;marginBottom=0;" parent="1" vertex="1">
          <mxGeometry x="280" y="12" width="180" height="176.4" as="geometry" />
        </mxCell>
        <mxCell id="wzfwyT9dnHNH-9bryAYG-30" value="login" style="text;strokeColor=none;fillColor=none;align=left;verticalAlign=top;spacingLeft=4;spacingRight=4;overflow=hidden;rotatable=0;points=[[0,0.5],[1,0.5]];portConstraint=eastwest;" parent="wzfwyT9dnHNH-9bryAYG-29" vertex="1">
          <mxGeometry y="28.4" width="180" height="28" as="geometry" />
        </mxCell>
        <mxCell id="wzfwyT9dnHNH-9bryAYG-31" value="email" style="text;strokeColor=none;fillColor=none;align=left;verticalAlign=top;spacingLeft=4;spacingRight=4;overflow=hidden;rotatable=0;points=[[0,0.5],[1,0.5]];portConstraint=eastwest;" parent="wzfwyT9dnHNH-9bryAYG-29" vertex="1">
          <mxGeometry y="56.4" width="180" height="28" as="geometry" />
        </mxCell>
        <mxCell id="wzfwyT9dnHNH-9bryAYG-32" style="line;strokeWidth=1;fillColor=none;align=left;verticalAlign=middle;spacingTop=-1;spacingLeft=3;spacingRight=3;rotatable=0;labelPosition=right;points=[];portConstraint=eastwest;strokeColor=inherit;" parent="wzfwyT9dnHNH-9bryAYG-29" vertex="1">
          <mxGeometry y="84.4" width="180" height="8" as="geometry" />
        </mxCell>
        <mxCell id="wzfwyT9dnHNH-9bryAYG-33" value="password" style="text;strokeColor=none;fillColor=none;align=left;verticalAlign=top;spacingLeft=4;spacingRight=4;overflow=hidden;rotatable=0;points=[[0,0.5],[1,0.5]];portConstraint=eastwest;" parent="wzfwyT9dnHNH-9bryAYG-29" vertex="1">
          <mxGeometry y="92.4" width="180" height="28" as="geometry" />
        </mxCell>
        <mxCell id="wzfwyT9dnHNH-9bryAYG-34" value="secretQuestion" style="text;strokeColor=none;fillColor=none;align=left;verticalAlign=top;spacingLeft=4;spacingRight=4;overflow=hidden;rotatable=0;points=[[0,0.5],[1,0.5]];portConstraint=eastwest;" parent="wzfwyT9dnHNH-9bryAYG-29" vertex="1">
          <mxGeometry y="120.4" width="180" height="28" as="geometry" />
        </mxCell>
        <mxCell id="wzfwyT9dnHNH-9bryAYG-35" value="answer" style="text;strokeColor=none;fillColor=none;align=left;verticalAlign=top;spacingLeft=4;spacingRight=4;overflow=hidden;rotatable=0;points=[[0,0.5],[1,0.5]];portConstraint=eastwest;" parent="wzfwyT9dnHNH-9bryAYG-29" vertex="1">
          <mxGeometry y="148.4" width="180" height="28" as="geometry" />
        </mxCell>
        <mxCell id="wzfwyT9dnHNH-9bryAYG-36" value="profile" style="swimlane;fontStyle=1;align=center;verticalAlign=top;childLayout=stackLayout;horizontal=1;startSize=28.4;horizontalStack=0;resizeParent=1;resizeParentMax=0;resizeLast=0;collapsible=0;marginBottom=0;" parent="1" vertex="1">
          <mxGeometry x="810" y="40" width="180" height="120.4" as="geometry" />
        </mxCell>
        <mxCell id="wzfwyT9dnHNH-9bryAYG-37" value="id" style="text;strokeColor=none;fillColor=none;align=left;verticalAlign=top;spacingLeft=4;spacingRight=4;overflow=hidden;rotatable=0;points=[[0,0.5],[1,0.5]];portConstraint=eastwest;" parent="wzfwyT9dnHNH-9bryAYG-36" vertex="1">
          <mxGeometry y="28.4" width="180" height="28" as="geometry" />
        </mxCell>
        <mxCell id="wzfwyT9dnHNH-9bryAYG-39" style="line;strokeWidth=1;fillColor=none;align=left;verticalAlign=middle;spacingTop=-1;spacingLeft=3;spacingRight=3;rotatable=0;labelPosition=right;points=[];portConstraint=eastwest;strokeColor=inherit;" parent="wzfwyT9dnHNH-9bryAYG-36" vertex="1">
          <mxGeometry y="56.4" width="180" height="8" as="geometry" />
        </mxCell>
        <mxCell id="wzfwyT9dnHNH-9bryAYG-40" value="name" style="text;strokeColor=none;fillColor=none;align=left;verticalAlign=top;spacingLeft=4;spacingRight=4;overflow=hidden;rotatable=0;points=[[0,0.5],[1,0.5]];portConstraint=eastwest;" parent="wzfwyT9dnHNH-9bryAYG-36" vertex="1">
          <mxGeometry y="64.4" width="180" height="28" as="geometry" />
        </mxCell>
        <mxCell id="wzfwyT9dnHNH-9bryAYG-41" value="description" style="text;strokeColor=none;fillColor=none;align=left;verticalAlign=top;spacingLeft=4;spacingRight=4;overflow=hidden;rotatable=0;points=[[0,0.5],[1,0.5]];portConstraint=eastwest;" parent="wzfwyT9dnHNH-9bryAYG-36" vertex="1">
          <mxGeometry y="92.4" width="180" height="28" as="geometry" />
        </mxCell>
        <mxCell id="wzfwyT9dnHNH-9bryAYG-43" value="credential_profile" style="swimlane;fontStyle=1;align=center;verticalAlign=top;childLayout=stackLayout;horizontal=1;startSize=28.4;horizontalStack=0;resizeParent=1;resizeParentMax=0;resizeLast=0;collapsible=0;marginBottom=0;" parent="1" vertex="1">
          <mxGeometry x="560" y="-60" width="180" height="204.4" as="geometry" />
        </mxCell>
        <mxCell id="wzfwyT9dnHNH-9bryAYG-44" value="login" style="text;strokeColor=none;fillColor=none;align=left;verticalAlign=top;spacingLeft=4;spacingRight=4;overflow=hidden;rotatable=0;points=[[0,0.5],[1,0.5]];portConstraint=eastwest;" parent="wzfwyT9dnHNH-9bryAYG-43" vertex="1">
          <mxGeometry y="28.4" width="180" height="28" as="geometry" />
        </mxCell>
        <mxCell id="wzfwyT9dnHNH-9bryAYG-45" value="profileId" style="text;strokeColor=none;fillColor=none;align=left;verticalAlign=top;spacingLeft=4;spacingRight=4;overflow=hidden;rotatable=0;points=[[0,0.5],[1,0.5]];portConstraint=eastwest;" parent="wzfwyT9dnHNH-9bryAYG-43" vertex="1">
          <mxGeometry y="56.4" width="180" height="28" as="geometry" />
        </mxCell>
        <mxCell id="wzfwyT9dnHNH-9bryAYG-85" value="accountID" style="text;strokeColor=none;fillColor=none;align=left;verticalAlign=top;spacingLeft=4;spacingRight=4;overflow=hidden;rotatable=0;points=[[0,0.5],[1,0.5]];portConstraint=eastwest;" parent="wzfwyT9dnHNH-9bryAYG-43" vertex="1">
          <mxGeometry y="84.4" width="180" height="28" as="geometry" />
        </mxCell>
        <mxCell id="wzfwyT9dnHNH-9bryAYG-46" style="line;strokeWidth=1;fillColor=none;align=left;verticalAlign=middle;spacingTop=-1;spacingLeft=3;spacingRight=3;rotatable=0;labelPosition=right;points=[];portConstraint=eastwest;strokeColor=inherit;" parent="wzfwyT9dnHNH-9bryAYG-43" vertex="1">
          <mxGeometry y="112.4" width="180" height="8" as="geometry" />
        </mxCell>
        <mxCell id="wzfwyT9dnHNH-9bryAYG-47" value="+deposit(amount)" style="text;strokeColor=none;fillColor=none;align=left;verticalAlign=top;spacingLeft=4;spacingRight=4;overflow=hidden;rotatable=0;points=[[0,0.5],[1,0.5]];portConstraint=eastwest;" parent="wzfwyT9dnHNH-9bryAYG-43" vertex="1">
          <mxGeometry y="120.4" width="180" height="28" as="geometry" />
        </mxCell>
        <mxCell id="wzfwyT9dnHNH-9bryAYG-48" value="+withdrawal(amount)" style="text;strokeColor=none;fillColor=none;align=left;verticalAlign=top;spacingLeft=4;spacingRight=4;overflow=hidden;rotatable=0;points=[[0,0.5],[1,0.5]];portConstraint=eastwest;" parent="wzfwyT9dnHNH-9bryAYG-43" vertex="1">
          <mxGeometry y="148.4" width="180" height="28" as="geometry" />
        </mxCell>
        <mxCell id="wzfwyT9dnHNH-9bryAYG-49" value="+withdrawal(amount)" style="text;strokeColor=none;fillColor=none;align=left;verticalAlign=top;spacingLeft=4;spacingRight=4;overflow=hidden;rotatable=0;points=[[0,0.5],[1,0.5]];portConstraint=eastwest;" parent="wzfwyT9dnHNH-9bryAYG-43" vertex="1">
          <mxGeometry y="176.4" width="180" height="28" as="geometry" />
        </mxCell>
        <mxCell id="wzfwyT9dnHNH-9bryAYG-50" value="blank" style="swimlane;fontStyle=1;align=center;verticalAlign=top;childLayout=stackLayout;horizontal=1;startSize=28.4;horizontalStack=0;resizeParent=1;resizeParentMax=0;resizeLast=0;collapsible=0;marginBottom=0;" parent="1" vertex="1">
          <mxGeometry x="60" y="570" width="180" height="92.4" as="geometry" />
        </mxCell>
        <mxCell id="wzfwyT9dnHNH-9bryAYG-51" value="id" style="text;strokeColor=none;fillColor=none;align=left;verticalAlign=top;spacingLeft=4;spacingRight=4;overflow=hidden;rotatable=0;points=[[0,0.5],[1,0.5]];portConstraint=eastwest;" parent="wzfwyT9dnHNH-9bryAYG-50" vertex="1">
          <mxGeometry y="28.4" width="180" height="28" as="geometry" />
        </mxCell>
        <mxCell id="wzfwyT9dnHNH-9bryAYG-53" style="line;strokeWidth=1;fillColor=none;align=left;verticalAlign=middle;spacingTop=-1;spacingLeft=3;spacingRight=3;rotatable=0;labelPosition=right;points=[];portConstraint=eastwest;strokeColor=inherit;" parent="wzfwyT9dnHNH-9bryAYG-50" vertex="1">
          <mxGeometry y="56.4" width="180" height="8" as="geometry" />
        </mxCell>
        <mxCell id="wzfwyT9dnHNH-9bryAYG-56" value="property" style="text;strokeColor=none;fillColor=none;align=left;verticalAlign=top;spacingLeft=4;spacingRight=4;overflow=hidden;rotatable=0;points=[[0,0.5],[1,0.5]];portConstraint=eastwest;" parent="wzfwyT9dnHNH-9bryAYG-50" vertex="1">
          <mxGeometry y="64.4" width="180" height="28" as="geometry" />
        </mxCell>
        <mxCell id="wzfwyT9dnHNH-9bryAYG-57" value="" style="edgeStyle=orthogonalEdgeStyle;rounded=0;orthogonalLoop=1;jettySize=auto;html=1;endArrow=none;endFill=0;" parent="1" source="wzfwyT9dnHNH-9bryAYG-33" target="wzfwyT9dnHNH-9bryAYG-48" edge="1">
          <mxGeometry relative="1" as="geometry" />
        </mxCell>
        <mxCell id="wzfwyT9dnHNH-9bryAYG-58" value="1..*" style="edgeLabel;html=1;align=center;verticalAlign=middle;resizable=0;points=[];" parent="wzfwyT9dnHNH-9bryAYG-57" vertex="1" connectable="0">
          <mxGeometry x="0.7188" y="2" relative="1" as="geometry">
            <mxPoint as="offset" />
          </mxGeometry>
        </mxCell>
        <mxCell id="wzfwyT9dnHNH-9bryAYG-59" value="" style="edgeStyle=orthogonalEdgeStyle;rounded=0;orthogonalLoop=1;jettySize=auto;html=1;endArrow=none;endFill=0;" parent="1" source="wzfwyT9dnHNH-9bryAYG-37" target="wzfwyT9dnHNH-9bryAYG-45" edge="1">
          <mxGeometry relative="1" as="geometry" />
        </mxCell>
        <mxCell id="wzfwyT9dnHNH-9bryAYG-60" value="1..*" style="edgeLabel;html=1;align=center;verticalAlign=middle;resizable=0;points=[];" parent="wzfwyT9dnHNH-9bryAYG-59" vertex="1" connectable="0">
          <mxGeometry x="0.8061" y="2" relative="1" as="geometry">
            <mxPoint as="offset" />
          </mxGeometry>
        </mxCell>
        <mxCell id="wzfwyT9dnHNH-9bryAYG-69" value="billing" style="swimlane;fontStyle=1;align=center;verticalAlign=top;childLayout=stackLayout;horizontal=1;startSize=28.4;horizontalStack=0;resizeParent=1;resizeParentMax=0;resizeLast=0;collapsible=0;marginBottom=0;" parent="1" vertex="1">
          <mxGeometry x="80" y="340" width="180" height="92.4" as="geometry" />
        </mxCell>
        <mxCell id="wzfwyT9dnHNH-9bryAYG-70" value="id" style="text;strokeColor=none;fillColor=none;align=left;verticalAlign=top;spacingLeft=4;spacingRight=4;overflow=hidden;rotatable=0;points=[[0,0.5],[1,0.5]];portConstraint=eastwest;" parent="wzfwyT9dnHNH-9bryAYG-69" vertex="1">
          <mxGeometry y="28.4" width="180" height="28" as="geometry" />
        </mxCell>
        <mxCell id="wzfwyT9dnHNH-9bryAYG-71" style="line;strokeWidth=1;fillColor=none;align=left;verticalAlign=middle;spacingTop=-1;spacingLeft=3;spacingRight=3;rotatable=0;labelPosition=right;points=[];portConstraint=eastwest;strokeColor=inherit;" parent="wzfwyT9dnHNH-9bryAYG-69" vertex="1">
          <mxGeometry y="56.4" width="180" height="8" as="geometry" />
        </mxCell>
        <mxCell id="wzfwyT9dnHNH-9bryAYG-72" value="property" style="text;strokeColor=none;fillColor=none;align=left;verticalAlign=top;spacingLeft=4;spacingRight=4;overflow=hidden;rotatable=0;points=[[0,0.5],[1,0.5]];portConstraint=eastwest;" parent="wzfwyT9dnHNH-9bryAYG-69" vertex="1">
          <mxGeometry y="64.4" width="180" height="28" as="geometry" />
        </mxCell>
        <mxCell id="wzfwyT9dnHNH-9bryAYG-81" value="" style="edgeStyle=orthogonalEdgeStyle;rounded=0;orthogonalLoop=1;jettySize=auto;html=1;endArrow=none;endFill=0;" parent="1" source="wzfwyT9dnHNH-9bryAYG-73" target="wzfwyT9dnHNH-9bryAYG-49" edge="1">
          <mxGeometry relative="1" as="geometry" />
        </mxCell>
        <mxCell id="wzfwyT9dnHNH-9bryAYG-87" value="1..*" style="edgeLabel;html=1;align=center;verticalAlign=middle;resizable=0;points=[];" parent="wzfwyT9dnHNH-9bryAYG-81" vertex="1" connectable="0">
          <mxGeometry x="0.8951" y="-1" relative="1" as="geometry">
            <mxPoint as="offset" />
          </mxGeometry>
        </mxCell>
        <mxCell id="wzfwyT9dnHNH-9bryAYG-73" value="Account" style="swimlane;fontStyle=1;align=center;verticalAlign=top;childLayout=stackLayout;horizontal=1;startSize=28.4;horizontalStack=0;resizeParent=1;resizeParentMax=0;resizeLast=0;collapsible=0;marginBottom=0;" parent="1" vertex="1">
          <mxGeometry x="560" y="270" width="180" height="204.4" as="geometry" />
        </mxCell>
        <mxCell id="wzfwyT9dnHNH-9bryAYG-80" value="id" style="text;strokeColor=none;fillColor=none;align=left;verticalAlign=top;spacingLeft=4;spacingRight=4;overflow=hidden;rotatable=0;points=[[0,0.5],[1,0.5]];portConstraint=eastwest;" parent="wzfwyT9dnHNH-9bryAYG-73" vertex="1">
          <mxGeometry y="28.4" width="180" height="28" as="geometry" />
        </mxCell>
        <mxCell id="wzfwyT9dnHNH-9bryAYG-74" value="ownerId" style="text;strokeColor=none;fillColor=none;align=left;verticalAlign=top;spacingLeft=4;spacingRight=4;overflow=hidden;rotatable=0;points=[[0,0.5],[1,0.5]];portConstraint=eastwest;" parent="wzfwyT9dnHNH-9bryAYG-73" vertex="1">
          <mxGeometry y="56.4" width="180" height="28" as="geometry" />
        </mxCell>
        <mxCell id="wzfwyT9dnHNH-9bryAYG-75" style="line;strokeWidth=1;fillColor=none;align=left;verticalAlign=middle;spacingTop=-1;spacingLeft=3;spacingRight=3;rotatable=0;labelPosition=right;points=[];portConstraint=eastwest;strokeColor=inherit;" parent="wzfwyT9dnHNH-9bryAYG-73" vertex="1">
          <mxGeometry y="84.4" width="180" height="8" as="geometry" />
        </mxCell>
        <mxCell id="wzfwyT9dnHNH-9bryAYG-82" value="AccountName" style="text;strokeColor=none;fillColor=none;align=left;verticalAlign=top;spacingLeft=4;spacingRight=4;overflow=hidden;rotatable=0;points=[[0,0.5],[1,0.5]];portConstraint=eastwest;" parent="wzfwyT9dnHNH-9bryAYG-73" vertex="1">
          <mxGeometry y="92.4" width="180" height="28" as="geometry" />
        </mxCell>
        <mxCell id="wzfwyT9dnHNH-9bryAYG-78" value="AccountName" style="text;strokeColor=none;fillColor=none;align=left;verticalAlign=top;spacingLeft=4;spacingRight=4;overflow=hidden;rotatable=0;points=[[0,0.5],[1,0.5]];portConstraint=eastwest;" parent="wzfwyT9dnHNH-9bryAYG-73" vertex="1">
          <mxGeometry y="120.4" width="180" height="28" as="geometry" />
        </mxCell>
        <mxCell id="wzfwyT9dnHNH-9bryAYG-79" value="creationDate" style="text;strokeColor=none;fillColor=none;align=left;verticalAlign=top;spacingLeft=4;spacingRight=4;overflow=hidden;rotatable=0;points=[[0,0.5],[1,0.5]];portConstraint=eastwest;" parent="wzfwyT9dnHNH-9bryAYG-73" vertex="1">
          <mxGeometry y="148.4" width="180" height="28" as="geometry" />
        </mxCell>
        <mxCell id="wzfwyT9dnHNH-9bryAYG-76" value="property" style="text;strokeColor=none;fillColor=none;align=left;verticalAlign=top;spacingLeft=4;spacingRight=4;overflow=hidden;rotatable=0;points=[[0,0.5],[1,0.5]];portConstraint=eastwest;" parent="wzfwyT9dnHNH-9bryAYG-73" vertex="1">
          <mxGeometry y="176.4" width="180" height="28" as="geometry" />
        </mxCell>
        <mxCell id="wzfwyT9dnHNH-9bryAYG-89" style="edgeStyle=orthogonalEdgeStyle;rounded=0;orthogonalLoop=1;jettySize=auto;html=1;entryX=0.531;entryY=1.003;entryDx=0;entryDy=0;entryPerimeter=0;endArrow=none;endFill=0;" parent="1" source="wzfwyT9dnHNH-9bryAYG-74" target="wzfwyT9dnHNH-9bryAYG-35" edge="1">
          <mxGeometry relative="1" as="geometry" />
        </mxCell>
        <mxCell id="wzfwyT9dnHNH-9bryAYG-90" value="1" style="edgeLabel;html=1;align=center;verticalAlign=middle;resizable=0;points=[];" parent="wzfwyT9dnHNH-9bryAYG-89" vertex="1" connectable="0">
          <mxGeometry x="0.918" y="1" relative="1" as="geometry">
            <mxPoint as="offset" />
          </mxGeometry>
        </mxCell>
      </root>
    </mxGraphModel>
  </diagram>
</mxfile>
